<svg width="162" height="26" viewBox="0 0 162 26" fill="none" xmlns="http://www.w3.org/2000/svg">
<path d="M36 0.75H3C1.75736 0.75 0.75 1.75736 0.75 3V23C0.75 24.2426 1.75736 25.25 3 25.25H36C37.2426 25.25 38.25 24.2426 38.25 23V3C38.25 1.75736 37.2426 0.75 36 0.75Z" fill="white" stroke="#0E4595" stroke-width="0.5"/>
<path d="M15.2106 17.8858L16.7581 8.19805H19.2332L17.6846 17.8858H15.2106ZM26.6271 8.40689C26.1369 8.21062 25.3684 8 24.4088 8C21.963 8 20.2403 9.31395 20.2255 11.1971C20.2117 12.5892 21.4555 13.3658 22.3943 13.8291C23.3578 14.3041 23.6817 14.6069 23.677 15.0308C23.6709 15.6803 22.9077 15.9768 22.1962 15.9768C21.2055 15.9768 20.6792 15.83 19.8663 15.4684L19.5473 15.3144L19.2 17.4831C19.7781 17.7536 20.8471 17.9878 21.9572 18C24.5591 18 26.2481 16.701 26.2673 14.69C26.2766 13.5879 25.6172 12.7493 24.1891 12.0579C23.324 11.6097 22.7941 11.3106 22.7998 10.8568C22.7998 10.4541 23.2482 10.0236 24.2174 10.0236C25.0267 10.0101 25.6131 10.1984 26.0699 10.3947L26.2917 10.5065L26.6271 8.40689ZM32.9966 8.1979H31.0841C30.4916 8.1979 30.0481 8.37042 29.788 9.00129L26.112 17.8794H28.7111C28.7111 17.8794 29.136 16.6857 29.2321 16.4236C29.5162 16.4236 32.0411 16.4277 32.4021 16.4277C32.4761 16.7669 32.7032 17.8794 32.7032 17.8794H35L32.9966 8.1976V8.1979ZM29.9621 14.4537C30.1668 13.8955 30.9483 11.7455 30.9483 11.7455C30.9337 11.7713 31.1515 11.1846 31.2764 10.8209L31.4437 11.6561C31.4437 11.6561 31.9177 13.9686 32.0167 14.4535H29.9621V14.4537ZM13.1094 8.1979L10.6861 14.8045L10.428 13.462C9.9768 11.9143 8.5713 10.2375 7 9.39803L9.21581 17.8703L11.8346 17.8672L15.7314 8.1978L13.1094 8.19775" fill="#0E4595"/>
<path d="M9.34528 9H6.02631L6 9.15299C8.58212 9.76163 10.2906 11.2325 11 13L10.2783 9.621C10.1538 9.15539 9.79239 9.01641 9.34536 9.00019" fill="#F2AE14"/>
<g clip-path="url(#clip0_614_1300)">
<path d="M79 1H42V25H79V1Z" fill="#006BB7"/>
<path d="M68.134 10.6885C67.843 10.3625 67.5607 10.0541 67.287 9.73694C67.2262 9.66646 67.1654 9.64003 67.0742 9.64003C64.147 9.64003 61.2197 9.64443 58.2925 9.64003C58.1839 9.64003 58.1361 9.67527 58.0971 9.77218C57.9016 10.2479 57.7018 10.7237 57.5021 11.1995C57.4847 11.2391 57.4847 11.292 57.4239 11.314C57.4065 11.2788 57.3891 11.2479 57.3761 11.2127C57.1633 10.7413 56.9461 10.2744 56.742 9.80302C56.6899 9.68848 56.6334 9.64003 56.5031 9.64003C55.3175 9.64443 54.1318 9.64003 52.9461 9.64003C51.9994 9.64003 51.0526 9.64003 50.1058 9.63562C49.9972 9.63562 49.9407 9.66646 49.8973 9.76778C48.9809 11.9572 48.0602 14.1422 47.1351 16.3272C47.1221 16.358 47.096 16.3933 47.1177 16.4329C47.1307 16.4373 47.1438 16.4417 47.1611 16.4417C48.2426 16.4417 49.324 16.4417 50.4054 16.4461C50.488 16.4461 50.5227 16.4109 50.5488 16.336C50.6617 16.054 50.7789 15.7721 50.8919 15.4902C50.9223 15.4153 50.9614 15.3889 51.0439 15.3889C51.2914 15.3933 51.5433 15.3933 51.7909 15.3889C51.8864 15.3845 51.9299 15.4241 51.9603 15.5078C52.0645 15.7809 52.1818 16.054 52.2903 16.3272C52.3251 16.4153 52.3642 16.4593 52.4597 16.4461C52.4901 16.4417 52.5205 16.4461 52.5553 16.4461C57.3327 16.4461 62.1144 16.4461 66.8918 16.4461C66.9222 16.4461 66.9526 16.4417 66.9874 16.4461C67.0612 16.4549 67.1133 16.4285 67.1654 16.3712C67.4 16.1113 67.6388 15.8558 67.8821 15.6003C67.9429 15.5342 67.9993 15.4549 68.0818 15.4065C68.3641 15.7237 68.6421 16.032 68.9157 16.3404C68.9809 16.4109 69.0417 16.4461 69.1416 16.4461C70.4619 16.4417 71.7821 16.4461 73.1024 16.4417C73.1329 16.4417 73.1763 16.4637 73.2067 16.4109C72.2034 15.2963 71.2045 14.1774 70.1969 13.0541C71.2175 11.9175 72.2338 10.7942 73.2631 9.64003C73.1719 9.64003 73.1198 9.64003 73.0721 9.64003C72.299 9.64003 71.5216 9.64003 70.7485 9.64003C70.2577 9.64003 69.7713 9.64443 69.2805 9.63562C69.1589 9.63562 69.0677 9.65765 68.9852 9.75897C68.8506 9.92637 68.6986 10.0761 68.5509 10.2347C68.4206 10.3845 68.286 10.5299 68.134 10.6885Z" fill="#016BB7"/>
<path d="M68.1335 10.6889C68.2812 10.5303 68.4202 10.385 68.5548 10.2396C68.7025 10.081 68.8545 9.93122 68.9891 9.76382C69.0716 9.6625 69.1628 9.63607 69.2844 9.64047C69.7752 9.64488 70.2616 9.64488 70.7524 9.64488C71.5255 9.64488 72.3029 9.64488 73.076 9.64488C73.1281 9.64488 73.1802 9.64488 73.2671 9.64488C72.2377 10.799 71.2171 11.918 70.2008 13.0589C71.2084 14.1823 72.2073 15.3012 73.2106 16.4157C73.1802 16.4642 73.1368 16.4466 73.1064 16.4466C71.7861 16.4466 70.4658 16.4466 69.1455 16.451C69.0456 16.451 68.9804 16.4157 68.9196 16.3452C68.646 16.0325 68.368 15.7285 68.0857 15.4113C68.0032 15.4598 67.9511 15.5391 67.886 15.6052C67.6471 15.8607 67.4082 16.1162 67.1693 16.3761C67.1172 16.4333 67.0651 16.4554 66.9913 16.451C66.9609 16.4466 66.9305 16.451 66.8957 16.451C62.1183 16.451 57.3366 16.451 52.5592 16.451C52.5288 16.451 52.494 16.4466 52.4636 16.451C52.3681 16.4686 52.3246 16.4201 52.2942 16.332C52.19 16.0589 52.0727 15.7858 51.9642 15.5127C51.9294 15.429 51.886 15.3893 51.7948 15.3937C51.5472 15.4025 51.2953 15.3981 51.0478 15.3937C50.9696 15.3937 50.9262 15.4201 50.8958 15.495C50.7829 15.777 50.6612 16.0589 50.5527 16.3408C50.5223 16.4113 50.4919 16.451 50.4093 16.451C49.3279 16.4466 48.2465 16.4466 47.1651 16.4466C47.152 16.4466 47.1347 16.4422 47.1216 16.4378C47.0999 16.3981 47.126 16.3629 47.139 16.332C48.0597 14.1426 48.9805 11.9576 49.8969 9.77263C49.9403 9.6669 49.9968 9.64047 50.1053 9.64047C51.0521 9.64488 51.9989 9.64047 52.9457 9.64488C54.1314 9.64488 55.317 9.64928 56.5027 9.64488C56.633 9.64488 56.6938 9.68893 56.7416 9.80787C56.95 10.2792 57.1629 10.7462 57.3757 11.2175C57.3887 11.2484 57.4061 11.2836 57.4234 11.3189C57.4842 11.2968 57.4842 11.244 57.5016 11.2043C57.7014 10.7286 57.9012 10.2572 58.0966 9.77703C58.1357 9.68012 58.1835 9.64488 58.2921 9.64488C61.2193 9.64928 64.1466 9.64928 67.0738 9.64488C67.165 9.64488 67.2258 9.67131 67.2866 9.74179C67.5602 10.0546 67.8425 10.3629 68.1335 10.6889ZM59.4082 12.0854C59.4604 12.1426 59.4517 12.1999 59.4517 12.2572C59.4517 13.2836 59.4517 14.3144 59.4517 15.3408C59.4517 15.4818 59.4517 15.4818 59.5863 15.4818C59.9207 15.4818 60.2508 15.4818 60.5852 15.4818C60.7155 15.4818 60.7155 15.4774 60.7155 15.3541C60.7199 13.821 60.7285 12.2836 60.7329 10.7506C60.7329 10.6052 60.7329 10.6052 60.5852 10.6052C60.0336 10.6052 59.4821 10.6096 58.9305 10.6008C58.8176 10.6008 58.7655 10.6449 58.7264 10.7418C58.4571 11.3938 58.1835 12.0413 57.9142 12.6933C57.7709 13.0325 57.6319 13.3673 57.4886 13.7109C57.4408 13.6801 57.4321 13.6404 57.4148 13.6008C57.3496 13.4598 57.2845 13.3144 57.2193 13.1691C56.8545 12.3585 56.4853 11.5523 56.1205 10.7418C56.0727 10.6361 56.0206 10.5964 55.899 10.5964C55.3474 10.6052 54.7959 10.6008 54.2443 10.6008C54.1227 10.6008 54.1227 10.6052 54.1227 10.7198C54.1227 10.7506 54.1227 10.7814 54.1227 10.8167C54.1227 12.0986 54.1227 13.3805 54.1227 14.6624C54.1227 14.7065 54.1227 14.7505 54.1227 14.8078C54.0575 14.7638 54.0532 14.7065 54.0315 14.6624C53.4799 13.3541 52.924 12.0501 52.3768 10.7374C52.3333 10.6361 52.2899 10.592 52.1726 10.5964C51.6906 10.6052 51.2041 10.6052 50.722 10.5964C50.6135 10.5964 50.57 10.6316 50.5266 10.7286C49.8882 12.2616 49.2411 13.7814 48.5896 15.3056C48.5679 15.3541 48.5331 15.3981 48.5462 15.451C48.5635 15.4686 48.5852 15.4686 48.6026 15.4686C48.9935 15.4686 49.3844 15.4686 49.7709 15.473C49.8491 15.473 49.8795 15.4378 49.9055 15.3717C50.0185 15.0897 50.1401 14.8078 50.2487 14.5259C50.2791 14.451 50.3138 14.4202 50.3963 14.4202C51.0825 14.4246 51.7687 14.4246 52.4549 14.4202C52.5331 14.4202 52.5722 14.4466 52.6026 14.5215C52.7112 14.7946 52.8284 15.0633 52.9327 15.3408C52.9718 15.4378 53.0152 15.4774 53.1238 15.473C53.8143 15.4686 54.5049 15.4686 55.1998 15.4686C55.3648 15.4686 55.3474 15.4818 55.3518 15.3144C55.3518 15.288 55.3518 15.2616 55.3518 15.2351C55.3518 14.2219 55.3518 13.2087 55.3518 12.1955C55.3518 12.1471 55.3518 12.0942 55.3518 12.0193C55.4126 12.0678 55.4213 12.1206 55.443 12.1647C55.9077 13.2175 56.3681 14.2748 56.8284 15.3276C56.8762 15.4334 56.9283 15.4818 57.0456 15.4774C57.2888 15.4686 57.5364 15.4686 57.7796 15.4774C57.8925 15.4818 57.9446 15.4422 57.988 15.3408C58.3225 14.5655 58.6612 13.7902 59 13.0149C59.1346 12.7065 59.2693 12.3981 59.4082 12.0854ZM68.0944 12.1471C68.064 12.1074 68.0467 12.081 68.0249 12.0589C67.6341 11.614 67.2388 11.1735 66.8523 10.7242C66.7741 10.6361 66.6959 10.6052 66.583 10.6052C64.9848 10.6096 63.3909 10.6096 61.7926 10.6096C61.5928 10.6096 61.6145 10.592 61.6145 10.7858C61.6145 12.2924 61.6145 13.8034 61.6145 15.31C61.6145 15.3453 61.6145 15.3849 61.6145 15.4201C61.6145 15.4686 61.6406 15.4862 61.684 15.4862C61.7101 15.4862 61.7361 15.4862 61.7622 15.4862C63.3605 15.4862 64.9544 15.4862 66.5526 15.4862C66.6351 15.4862 66.6959 15.4642 66.7568 15.3981C67.0608 15.0589 67.3691 14.7241 67.6775 14.3893C67.8121 14.2439 67.9381 14.0898 68.0901 13.9532C68.1248 13.9884 68.1509 14.0193 68.1769 14.0501C68.5635 14.4906 68.9544 14.9312 69.3366 15.3761C69.406 15.4598 69.4842 15.4906 69.5928 15.4906C70.0358 15.4862 70.4788 15.4906 70.9174 15.4862C70.9522 15.4862 71 15.5038 71.0304 15.4554C70.6742 15.0589 70.3181 14.6624 69.9576 14.2616C69.6232 13.8871 69.2844 13.5127 68.95 13.1426C68.8718 13.0589 68.8762 13.0589 68.9413 12.9752C68.9544 12.9576 68.9717 12.9444 68.9848 12.9268C69.6145 12.2263 70.2486 11.5259 70.8783 10.8255C70.9348 10.7638 71.0043 10.7065 71.0434 10.6272C71.0217 10.6184 71.013 10.6096 71.0043 10.6096C70.5309 10.6096 70.0575 10.6096 69.5841 10.6052C69.5146 10.6052 69.4712 10.6405 69.4234 10.6889C69.2236 10.9092 69.0195 11.1294 68.8197 11.3497C68.5895 11.6052 68.3507 11.8651 68.0944 12.1471Z" fill="#FDFEFE"/>
<path d="M59.4096 12.085C59.275 12.3978 59.136 12.7105 59.0014 13.0189C58.6626 13.7942 58.3238 14.5695 57.9894 15.3449C57.946 15.4462 57.8939 15.4858 57.781 15.4814C57.5377 15.4726 57.2902 15.4726 57.047 15.4814C56.9297 15.4858 56.8776 15.4374 56.8298 15.3316C56.3738 14.2744 55.9091 13.2215 55.4444 12.1687C55.4227 12.1246 55.414 12.0718 55.3532 12.0233C55.3532 12.0982 55.3532 12.1467 55.3532 12.1995C55.3532 13.2127 55.3532 14.2259 55.3532 15.2391C55.3532 15.2656 55.3532 15.292 55.3532 15.3184C55.3532 15.4858 55.3662 15.4726 55.2012 15.4726C54.5106 15.4726 53.82 15.4682 53.1252 15.477C53.0166 15.477 52.9731 15.4418 52.9341 15.3449C52.8298 15.0717 52.7126 14.7986 52.604 14.5255C52.5736 14.4506 52.5345 14.4242 52.4563 14.4242C51.7701 14.4286 51.0839 14.4286 50.3977 14.4242C50.3152 14.4242 50.2804 14.455 50.25 14.5299C50.1371 14.8118 50.0198 15.0938 49.9069 15.3757C49.8809 15.4418 49.8505 15.477 49.7723 15.477C49.3814 15.4726 48.9905 15.477 48.604 15.4726C48.5823 15.4726 48.5649 15.4726 48.5475 15.455C48.5345 15.3977 48.5736 15.3537 48.591 15.3096C49.2424 13.781 49.8895 12.2612 50.5367 10.737C50.5758 10.6401 50.6235 10.6004 50.7321 10.6048C51.2142 10.6092 51.7006 10.6136 52.1827 10.6048C52.2956 10.6048 52.3434 10.6489 52.3868 10.7458C52.9341 12.0541 53.49 13.3625 54.0415 14.6709C54.0589 14.7149 54.0676 14.7722 54.1328 14.8162C54.1328 14.759 54.1328 14.7149 54.1328 14.6709C54.1328 13.3889 54.1328 12.107 54.1328 10.8251C54.1328 10.7942 54.1328 10.7634 54.1328 10.7282C54.1371 10.6092 54.1371 10.6092 54.2544 10.6092C54.8059 10.6092 55.3575 10.6136 55.9091 10.6048C56.0263 10.6048 56.0828 10.6445 56.1306 10.7502C56.4911 11.5608 56.8602 12.3669 57.2294 13.1775C57.2945 13.3229 57.3597 13.4638 57.4248 13.6092C57.4422 13.6444 57.4509 13.6885 57.4986 13.7193C57.642 13.3757 57.7853 13.0365 57.9243 12.7017C58.1979 12.0497 58.4672 11.4022 58.7364 10.7502C58.7755 10.6489 58.8276 10.6048 58.9406 10.6092C59.4921 10.618 60.0437 10.6136 60.5953 10.6136C60.7429 10.6136 60.7429 10.6136 60.7429 10.759C60.7386 12.292 60.7299 13.8295 60.7256 15.3625C60.7256 15.4902 60.7256 15.4902 60.5953 15.4902C60.2609 15.4902 59.9308 15.4902 59.5964 15.4902C59.4617 15.4902 59.4617 15.4902 59.4617 15.3493C59.4617 14.3228 59.4617 13.292 59.4617 12.2656C59.4487 12.1995 59.4617 12.1422 59.4096 12.085ZM50.7582 13.3008C51.2142 13.3008 51.6528 13.3008 52.1045 13.3008C51.8787 12.7458 51.6615 12.2083 51.427 11.6401C51.2012 12.2083 50.984 12.7458 50.7582 13.3008Z" fill="#026CB8"/>
<path d="M68.0954 12.1466C68.3516 11.8646 68.5905 11.6091 68.825 11.3492C69.0248 11.129 69.2289 10.9087 69.4287 10.6884C69.4721 10.64 69.5156 10.6047 69.5894 10.6047C70.0628 10.6091 70.5362 10.6091 71.0096 10.6091C71.0183 10.6091 71.027 10.618 71.0487 10.6268C71.0096 10.7061 70.9401 10.7633 70.8837 10.825C70.2539 11.5254 69.6198 12.2259 68.9901 12.9263C68.977 12.9439 68.9597 12.9571 68.9466 12.9748C68.8771 13.0585 68.8771 13.0585 68.9553 13.1422C69.2897 13.5166 69.6285 13.891 69.9629 14.2611C70.319 14.6576 70.6752 15.054 71.0357 15.4549C71.0053 15.5034 70.9575 15.4857 70.9227 15.4857C70.4797 15.4857 70.0368 15.4813 69.5981 15.4901C69.4895 15.4901 69.4157 15.4593 69.3419 15.3756C68.9597 14.9307 68.5688 14.4902 68.1822 14.0496C68.1562 14.0188 68.1258 13.988 68.0954 13.9527C67.9434 14.0893 67.8174 14.2435 67.6828 14.3888C67.3744 14.7236 67.0661 15.0584 66.7621 15.3976C66.7056 15.4637 66.6448 15.4857 66.5579 15.4857C64.9597 15.4857 63.3658 15.4857 61.7675 15.4857C61.7414 15.4857 61.7154 15.4857 61.6893 15.4857C61.6459 15.4857 61.6198 15.4681 61.6198 15.4197C61.6198 15.3844 61.6198 15.3448 61.6198 15.3095C61.6198 13.8029 61.6198 12.2919 61.6198 10.7854C61.6198 10.5915 61.5981 10.6091 61.7979 10.6091C63.3962 10.6091 64.9901 10.6091 66.5883 10.6047C66.7013 10.6047 66.7794 10.6356 66.8576 10.7237C67.2441 11.173 67.6394 11.6135 68.0302 12.0585C68.0476 12.0761 68.065 12.1025 68.0954 12.1466ZM65.4461 15.0056C65.4895 14.9747 65.5026 14.9703 65.5112 14.9571C66.0715 14.3404 66.6361 13.728 67.1964 13.1113C67.2659 13.0364 67.2659 13.032 67.192 12.9439C66.6491 12.3228 66.1019 11.6972 65.5547 11.0761C65.5286 11.0497 65.5112 11.0056 65.4591 11.01C65.4331 11.0629 65.4461 11.1157 65.4461 11.1686C65.4461 11.3228 65.4418 11.4726 65.4461 11.6268C65.4461 11.6928 65.4244 11.7237 65.3549 11.7193C65.3201 11.7149 65.2811 11.7193 65.2463 11.7193C64.5123 11.7193 63.7784 11.7193 63.0444 11.7193C63.0096 11.7193 62.9705 11.7193 62.9358 11.7193C62.8706 11.7149 62.8402 11.7369 62.8402 11.8074C62.8446 11.9968 62.8446 12.1862 62.8402 12.3756C62.8402 12.4373 62.862 12.4637 62.9228 12.4593C62.9575 12.4593 62.9966 12.4593 63.0313 12.4593C63.7523 12.4593 64.4776 12.4593 65.1985 12.4593C65.2333 12.4593 65.2724 12.4593 65.3071 12.4593C65.3636 12.4549 65.394 12.477 65.394 12.5386C65.394 12.8426 65.394 13.151 65.394 13.4549C65.394 13.5166 65.3723 13.543 65.3115 13.5386C65.2767 13.5342 65.2376 13.5386 65.2029 13.5386C64.4863 13.5386 63.7697 13.5386 63.0487 13.5386C63.014 13.5386 62.9749 13.543 62.9401 13.5386C62.8706 13.5342 62.8489 13.5651 62.8489 13.6311C62.8489 13.847 62.8489 14.0628 62.8489 14.2787C62.8489 14.3404 62.875 14.3624 62.9358 14.358C62.9705 14.358 63.0096 14.358 63.0444 14.358C63.7827 14.358 64.521 14.358 65.2593 14.358C65.4461 14.358 65.4418 14.3272 65.4418 14.5474C65.4461 14.6928 65.4461 14.8338 65.4461 15.0056Z" fill="#046DB8"/>
<path d="M50.7578 13.3008C50.9837 12.7457 51.2008 12.2083 51.431 11.64C51.6612 12.2083 51.8827 12.7457 52.1085 13.3008C51.6525 13.3008 51.2138 13.3008 50.7578 13.3008Z" fill="#FAFCFE"/>
<path d="M65.4453 15.0056C65.4453 14.8382 65.4453 14.6972 65.4453 14.5563C65.4453 14.3316 65.4496 14.3668 65.2629 14.3668C64.5245 14.3668 63.7862 14.3668 63.0479 14.3668C63.0131 14.3668 62.974 14.3668 62.9393 14.3668C62.8828 14.3712 62.8524 14.3492 62.8524 14.2875C62.8524 14.0717 62.8524 13.8558 62.8524 13.64C62.8524 13.5739 62.8742 13.5387 62.9436 13.5475C62.9784 13.5519 63.0175 13.5475 63.0522 13.5475C63.7688 13.5475 64.4854 13.5475 65.2064 13.5475C65.2411 13.5475 65.2802 13.5475 65.315 13.5475C65.3758 13.5519 65.3975 13.5254 65.3975 13.4638C65.3975 13.1598 65.3975 12.8514 65.3975 12.5475C65.3975 12.4858 65.3714 12.4638 65.3106 12.4682C65.2759 12.4682 65.2368 12.4682 65.2021 12.4682C64.4811 12.4682 63.7558 12.4682 63.0348 12.4682C63.0001 12.4682 62.961 12.4682 62.9263 12.4682C62.8655 12.4726 62.8438 12.4462 62.8438 12.3845C62.8438 12.1951 62.8481 12.0056 62.8438 11.8162C62.8438 11.7457 62.8742 11.7237 62.9393 11.7281C62.974 11.7281 63.0131 11.7281 63.0479 11.7281C63.7819 11.7281 64.5158 11.7281 65.2498 11.7281C65.2846 11.7281 65.3237 11.7237 65.3584 11.7281C65.4279 11.7325 65.4496 11.7017 65.4496 11.6356C65.4453 11.4814 65.4496 11.3316 65.4496 11.1775C65.4496 11.1246 65.4366 11.0717 65.4626 11.0189C65.5148 11.0145 65.5321 11.0585 65.5582 11.0849C66.1054 11.7061 66.6483 12.3272 67.1955 12.9528C67.2694 13.0409 67.2694 13.0409 67.1999 13.1202C66.6396 13.7369 66.0794 14.3492 65.5148 14.966C65.5017 14.966 65.4887 14.9748 65.4453 15.0056Z" fill="#FDFEFE"/>
</g>
<path d="M119 1H86C84.8954 1 84 1.89543 84 3V23C84 24.1046 84.8954 25 86 25H119C120.105 25 121 24.1046 121 23V3C121 1.89543 120.105 1 119 1Z" fill="white" stroke="#EB7D23" stroke-width="0.5"/>
<path d="M90.3056 10.6107H89.0508V15.0264H90.3056C90.9669 15.0264 91.4537 14.8658 91.8721 14.5145C92.3741 14.0941 92.6706 13.4678 92.6706 12.8186C92.6624 11.5197 91.6971 10.6107 90.3056 10.6107ZM91.309 13.9263C91.0428 14.1708 90.6932 14.2776 90.1381 14.2776H89.9099V11.3596H90.1381C90.6932 11.3596 91.0276 11.4587 91.309 11.7185C91.6055 11.9859 91.7805 12.3905 91.7805 12.8186C91.7805 13.2385 91.6055 13.6589 91.309 13.9263Z" fill="#231F20"/>
<path d="M93.9158 10.6107H93.0566V15.0264H93.9158V10.6107Z" fill="#231F20"/>
<path d="M96.008 12.3061C95.4909 12.1149 95.3467 11.9853 95.3467 11.7484C95.3467 11.4734 95.6128 11.2594 95.9852 11.2594C96.2438 11.2594 96.4492 11.3661 96.6769 11.6183L97.1257 11.0301C96.7609 10.7093 96.3196 10.541 95.8329 10.541C95.0572 10.541 94.4642 11.0834 94.4642 11.8018C94.4642 12.4128 94.7379 12.7184 95.544 13.0087C95.8784 13.1306 96.0535 13.2074 96.137 13.2608C96.3121 13.3752 96.3955 13.5358 96.3955 13.7194C96.3955 14.0783 96.1142 14.3381 95.7342 14.3381C95.3239 14.3381 94.9965 14.1316 94.7992 13.7499L94.2441 14.2847C94.6393 14.8652 95.1109 15.125 95.7646 15.125C96.6541 15.125 97.2774 14.5292 97.2774 13.6736C97.278 12.9787 96.9891 12.665 96.008 12.3061Z" fill="#231F20"/>
<path d="M97.543 12.8181C97.543 14.117 98.5544 15.1175 99.8619 15.1175C100.227 15.1175 100.546 15.0413 100.934 14.8577V13.8415C100.592 14.1851 100.288 14.3229 99.8998 14.3229C99.0406 14.3229 98.4249 13.6966 98.4249 12.8029C98.4249 11.9549 99.0558 11.2905 99.8619 11.2905C100.272 11.2905 100.577 11.4359 100.934 11.7872V10.7709C100.562 10.5798 100.25 10.5035 99.877 10.5035C98.5842 10.5112 97.543 11.5345 97.543 12.8181Z" fill="#231F20"/>
<path d="M107.725 13.575L106.554 10.6107H105.619L107.489 15.1408H107.946L109.847 10.6107H108.919L107.725 13.575Z" fill="#231F20"/>
<path d="M110.234 15.0264H112.66V14.2776H111.086V13.086H112.599V12.3371H111.086V11.3596H112.66V10.6107H110.234V15.0264Z" fill="#231F20"/>
<path d="M116.052 11.9172C116.052 11.0922 115.489 10.6107 114.5 10.6107H113.23V15.0264H114.09V13.2543H114.203L115.389 15.0264H116.446L115.063 13.1699C115.695 13.0326 116.052 12.5893 116.052 11.9172ZM114.334 12.6427H114.083V11.3056H114.349C114.881 11.3056 115.17 11.5273 115.17 11.9624C115.17 12.4058 114.881 12.6427 114.334 12.6427Z" fill="#231F20"/>
<path d="M103.551 15.1785C104.84 15.1785 105.885 14.1285 105.885 12.8334C105.885 11.5382 104.84 10.4883 103.551 10.4883C102.262 10.4883 101.217 11.5382 101.217 12.8334C101.217 14.1285 102.262 15.1785 103.551 15.1785Z" fill="url(#paint0_linear_614_1300)"/>
<path opacity="0.65" d="M103.551 15.1785C104.84 15.1785 105.885 14.1285 105.885 12.8334C105.885 11.5382 104.84 10.4883 103.551 10.4883C102.262 10.4883 101.217 11.5382 101.217 12.8334C101.217 14.1285 102.262 15.1785 103.551 15.1785Z" fill="url(#paint1_linear_614_1300)"/>
<path d="M116.598 10.7792C116.598 10.703 116.545 10.6572 116.453 10.6572H116.332V11.0466H116.423V10.8936L116.529 11.0466H116.643L116.514 10.886C116.568 10.8707 116.598 10.8326 116.598 10.7792ZM116.439 10.8326H116.424V10.7335H116.439C116.484 10.7335 116.507 10.7487 116.507 10.7868C116.507 10.8173 116.484 10.8326 116.439 10.8326Z" fill="#231F20"/>
<path d="M116.469 10.5111C116.279 10.5111 116.135 10.6641 116.135 10.8471C116.135 11.0383 116.287 11.1832 116.469 11.1832C116.652 11.1832 116.804 11.0301 116.804 10.8471C116.804 10.6641 116.651 10.5111 116.469 10.5111ZM116.469 11.1298C116.324 11.1298 116.203 11.0078 116.203 10.8548C116.203 10.7017 116.324 10.5797 116.469 10.5797C116.614 10.5797 116.735 10.7093 116.735 10.8548C116.735 11.0073 116.613 11.1298 116.469 11.1298Z" fill="#231F20"/>
<g clip-path="url(#clip1_614_1300)">
<path d="M162 1H125V25H162V1Z" fill="#003460"/>
<path d="M145.886 8.46997H141.059V17.4H145.886V8.46997Z" fill="#FF5F00"/>
<path fill-rule="evenodd" clip-rule="evenodd" d="M141.366 12.9349C141.366 11.1232 142.19 9.50968 143.473 8.46994C142.534 7.70933 141.35 7.25562 140.063 7.25562C137.017 7.25562 134.547 9.79848 134.547 12.9349C134.547 16.0716 137.017 18.6143 140.063 18.6143C141.35 18.6143 142.534 18.1606 143.473 17.3999C142.19 16.36 141.366 14.7466 141.366 12.9349Z" fill="#EB001B"/>
<path fill-rule="evenodd" clip-rule="evenodd" d="M152.226 16.4616V16.2411H152.17L152.106 16.3928L152.042 16.2411H151.986V16.4616H152.025V16.2952L152.086 16.4386H152.126L152.187 16.295V16.4616H152.226ZM151.872 16.4616V16.2788H151.944V16.2415H151.762V16.2788H151.833V16.4616H151.872ZM152.398 12.9423C152.399 16.0787 149.929 18.6216 146.882 18.6216C145.595 18.6216 144.411 18.1679 143.473 17.4075C144.756 16.3675 145.58 14.754 145.58 12.9423C145.58 11.1308 144.756 9.51721 143.473 8.47726C144.411 7.71686 145.595 7.26294 146.882 7.26294C149.929 7.26294 152.398 9.80559 152.398 12.9423Z" fill="#F79E1B"/>
</g>
<defs>
<linearGradient id="paint0_linear_614_1300" x1="104.747" y1="14.7152" x2="103.119" y2="12.1775" gradientUnits="userSpaceOnUse">
<stop stop-color="#F89F20"/>
<stop offset="0.2502" stop-color="#F79A20"/>
<stop offset="0.5331" stop-color="#F68D20"/>
<stop offset="0.6196" stop-color="#F58720"/>
<stop offset="0.7232" stop-color="#F48120"/>
<stop offset="1" stop-color="#F37521"/>
</linearGradient>
<linearGradient id="paint1_linear_614_1300" x1="104.492" y1="14.6805" x2="102.11" y2="10.0469" gradientUnits="userSpaceOnUse">
<stop stop-color="#F58720"/>
<stop offset="0.3587" stop-color="#E16F27"/>
<stop offset="0.703" stop-color="#D4602C"/>
<stop offset="0.9816" stop-color="#D05B2E"/>
</linearGradient>
<clipPath id="clip0_614_1300">
<rect x="42" y="1" width="37" height="24" rx="2" fill="white"/>
</clipPath>
<clipPath id="clip1_614_1300">
<rect x="125" y="1" width="37" height="24" rx="2" fill="white"/>
</clipPath>
</defs>
</svg>
